{"title":"Atlantis (2013) - 01x02 - A Girl By Any Other Name HDTV 480p x26","uid":9008064,"size":159792803,"categoryP":"video","categoryS":"tv_shows","magnet":"?xt=urn:btih:77ca84e7ba355d3c0479ece09ab454204b7da430&amp;dn=Atlantis+%282013%29+-+01x02+-+A+Girl+By+Any+Other+Name+HDTV+480p+x26&amp;tr=udp%3A%2F%2Ftracker.openbittorrent.com%3A80&amp;tr=udp%3A%2F%2Fopen.demonii.com%3A1337&amp;tr=udp%3A%2F%2Ftracker.coppersurfer.tk%3A6969&amp;tr=udp%3A%2F%2Fexodus.desync.com%3A6969","seeders":1,"leechers":0,"uploader":"canc232","files":1,"time":1381074183,"description":"Atlantis (2013) - 01x02 - A Girl By Any Other Name HDTV 480p x264 AAC E-Subs mRS.mp4\n\nSCREENS:\n &lt;a href=&quot;\nhttp://s20.postimg.org/tatoe8mil/Atlantis_2013_01x02_A_Girl_By_Any_Other_Na.jpg&quot; rel=&quot;nofollow&quot; target=&quot;_NEW&quot;&gt;\nhttp://s20.postimg.org/tatoe8mil/Atlantis_2013_01x02_A_Girl_By_Any_Other_Na.jpg&lt;/a&gt;\n &lt;a href=&quot;\nhttp://s20.postimg.org/43isdzjel/Atlantis_2013_01x02_A_Girl_By_Any_Other_Na.jpg&quot; rel=&quot;nofollow&quot; target=&quot;_NEW&quot;&gt;\nhttp://s20.postimg.org/43isdzjel/Atlantis_2013_01x02_A_Girl_By_Any_Other_Na.jpg&lt;/a&gt;\n &lt;a href=&quot;\nhttp://s20.postimg.org/nwuw6owsd/Atlantis_2013_01x02_A_Girl_By_Any_Other_Na.jpg&quot; rel=&quot;nofollow&quot; target=&quot;_NEW&quot;&gt;\nhttp://s20.postimg.org/nwuw6owsd/Atlantis_2013_01x02_A_Girl_By_Any_Other_Na.jpg&lt;/a&gt;\n\nMEDIA INFO :\nGeneral \nFormat : MPEG-4 \nFormat profile : Base Media \nCodec ID : isom \nFile size : 152 MiB \nDuration : 42mn 49s \nOverall bit rate mode : Variable \nOverall bit rate : 498 Kbps \n\nVideo \nFormat : AVC \nFormat profile : &lt;a class=&quot;__cf_email__&quot; href=&quot;/cdn-cgi/l/email-protection&quot; data-cfemail=&quot;1b53727c735b5728352b&quot;&gt;[email&amp;#160;protected]&lt;/a&gt;&lt;script cf-hash='f9e31' type=&quot;text/javascript&quot;&gt;\n/* &lt;![CDATA[ */!function(){try{var t=&quot;currentScript&quot;in document?document.currentScript:function(){for(var t=document.getElementsByTagName(&quot;script&quot;),e=t.length;e--;)if(t[e].getAttribute(&quot;cf-hash&quot;))return t[e]}();if(t&amp;&amp;t.previousSibling){var e,r,n,i,c=t.previousSibling,a=c.getAttribute(&quot;data-cfemail&quot;);if(a){for(e=&quot;&quot;,r=parseInt(a.substr(0,2),16),n=2;a.length-n;n+=2)i=parseInt(a.substr(n,2),16)^r,e+=String.fromCharCode(i);e=document.createTextNode(e),c.parentNode.replaceChild(e,c)}}}catch(u){}}();/* ]]&gt; */&lt;/script&gt; \nFormat settings, CABAC : Yes \nFormat settings, ReFrames : 5 frames \nDuration : 42mn 49s \nBit rate : 443 Kbps \nMaximum bit rate : 2 131 Kbps \nWidth : 848 pixels \nHeight : 480 pixels \nDisplay aspect ratio : 16:9 \nFrame rate mode : Constant \nFrame rate : 25.000 fps \nStream size : 136 MiB (89%) \nWriting library : x264 core\n\nAudio \nID : 2 \nFormat : AAC \nFormat profile : HE-AAC / LC \nCodec ID : 40 \nDuration : 42mn 49s \nBit rate mode : Variable \nChannel(s) : 2 channels \nChannel positions : Front: L R \nSampling rate : 48.0 KHz / 24.0 KHz \nCompression mode : Lossy \nStream size : 14.7 MiB (10%) \nLanguage : English \n\nText \nFormat : Timed Text \nMuxing mode : sbtl \nDuration : 42mn 32s \nBit rate mode : Variable \nStream size : 17.9 KiB (0%) \nTitle : ENGLISH SUBTITLE BY MemoryOnSmells \nLanguage : English","torrent":{"xt":"urn:btih:77ca84e7ba355d3c0479ece09ab454204b7da430","amp;dn":"Atlantis+%282013%29+-+01x02+-+A+Girl+By+Any+Other+Name+HDTV+480p+x26","amp;tr":["udp%3A%2F%2Ftracker.openbittorrent.com%3A80","udp%3A%2F%2Fopen.demonii.com%3A1337","udp%3A%2F%2Ftracker.coppersurfer.tk%3A6969","udp%3A%2F%2Fexodus.desync.com%3A6969"],"infoHash":"77ca84e7ba355d3c0479ece09ab454204b7da430","infoHashBuffer":{"type":"Buffer","data":[119,202,132,231,186,53,93,60,4,121,236,224,154,180,84,32,75,125,164,48]},"announce":[],"urlList":[]}}